<svg width="100" viewBox="0 0 169 79" fill="none" xmlns="http://www.w3.org/2000/svg">
<path d="M90.2155 35.4157C89.2937 34.4457 88.0131 33.8906 86.6925 33.8906C84.0452 33.8906 81.8916 36.0503 81.8916 38.7042C81.8916 41.3588 84.0452 43.5185 86.6925 43.5185C88.0131 43.5185 89.2937 42.9627 90.2155 41.9928L89.0659 40.9326C88.444 41.5352 87.625 41.8532 86.6925 41.8532C84.939 41.8532 83.6665 40.5285 83.6665 38.7042C83.6665 36.9093 84.9671 35.5559 86.6925 35.5559C87.5976 35.5559 88.4386 35.8826 89.0652 36.4764L90.2155 35.4157Z" fill="#16467E"/>
<path d="M158.778 43.423V33.9862H157.343L153.147 40.1184V33.9862H151.373V43.423H152.795L157.004 37.2908V43.423H158.778Z" fill="#16467E"/>
<path d="M95.6229 37.1953L96.7237 39.9989H94.5073L95.6229 37.1953ZM97.3363 41.6782L98.0176 43.423H99.9875L96.1593 33.9862H95.1265L91.2441 43.423H93.2134L93.8954 41.6782H97.3363Z" fill="#16467E"/>
<path d="M109.489 37.23V43.423H111.263V33.9862H110.224L106.559 38.5727L102.906 33.9862H101.867V43.423H103.641V37.2293L106.559 40.8686L109.489 37.23Z" fill="#16467E"/>
<path d="M117.657 37.1953L118.758 39.9989H116.541L117.657 37.1953ZM119.37 41.6782L120.052 43.423H122.022L118.193 33.9862H117.161L113.278 43.423H115.248L115.93 41.6782H119.37Z" fill="#16467E"/>
<path d="M125.512 35.6507H126.97C128.15 35.6507 129.341 36.2532 129.341 37.5999C129.341 39.0468 128.116 39.5618 126.97 39.5618H125.512V35.6507ZM131.02 37.5999C131.02 35.4376 129.332 33.9854 126.819 33.9854H123.737V43.4221H125.512V41.2271H126.819C129.332 41.2271 131.02 39.7695 131.02 37.5999Z" fill="#16467E"/>
<path d="M139.746 36.4764L140.896 35.4157C139.974 34.4457 138.693 33.8906 137.372 33.8906C134.726 33.8906 132.572 36.0503 132.572 38.7042C132.572 41.3588 134.726 43.5185 137.372 43.5185C138.693 43.5185 139.974 42.9627 140.896 41.9928L139.747 40.9326C139.125 41.5352 138.305 41.8532 137.372 41.8532C135.62 41.8532 134.346 40.5292 134.346 38.7042C134.346 36.9093 135.648 35.5559 137.372 35.5559C138.278 35.5559 139.119 35.8826 139.746 36.4764Z" fill="#16467E"/>
<path d="M89.6516 55.8308V46.394H82.3965V55.8308H84.1707V48.0594H87.8774V55.8308H89.6516Z" fill="#16467E"/>
<path d="M96.5092 54.2611C94.7557 54.2611 93.4832 52.9372 93.4832 51.1122C93.4832 49.3173 94.7838 47.9639 96.5092 47.9639C98.2707 47.9639 99.5486 49.2879 99.5486 51.1122C99.5486 52.9372 98.2707 54.2611 96.5092 54.2611ZM96.5092 46.2986C93.8626 46.2986 91.709 48.4582 91.709 51.1122C91.709 53.7668 93.8626 55.9264 96.5092 55.9264C99.1638 55.9264 101.323 53.7668 101.323 51.1122C101.323 48.4582 99.1638 46.2986 96.5092 46.2986Z" fill="#16467E"/>
<path d="M108.762 55.8308H110.732L106.904 46.394H105.871L101.988 55.8308H103.958L106.367 49.6418L108.762 55.8308Z" fill="#16467E"/>
<path d="M120.016 55.8308V46.394H118.58L114.385 52.5269V46.394H112.61V55.8308H114.033L118.242 49.6986V55.8308H120.016Z" fill="#16467E"/>
<path d="M128.879 46.394H121.869V48.0594H124.487V55.8308H126.261V48.0594H128.879V46.394Z" fill="#16467E"/>
<path d="M137.115 48.0594V46.394H130.868V55.8308H137.115V54.1662H132.642V51.9177H136.774V50.2531H132.642V48.0594H137.115Z" fill="#16467E"/>
<path d="M145.118 55.8308H147.129L143.853 50.9899L146.912 46.394H144.9L142.881 49.3526L140.821 46.394H138.81L141.869 50.9077L138.591 55.8308H140.616L142.839 52.5443L145.118 55.8308Z" fill="#16467E"/>
<path d="M146.897 38.582L149.957 33.9862H147.945L146.253 36.4651L145.38 37.7898H144.509V33.9862H142.734V43.423H144.509V39.4965H145.521L146.147 40.5145L148.163 43.423H150.175L146.897 38.582Z" fill="#16467E"/>
<path d="M166.489 31.5755C166.489 32.2909 165.909 32.8707 165.194 32.8707C164.479 32.8707 163.899 32.2909 163.899 31.5755C163.899 30.8601 164.479 30.2802 165.194 30.2802C165.909 30.2802 166.489 30.8601 166.489 31.5755Z" fill="#EC1E48"/>
<path d="M168.753 43.423V33.9862H167.318L163.122 40.1184V33.9862H161.348V43.423H162.77L166.979 37.2908V43.423H168.753Z" fill="#16467E"/>
<path d="M44.7812 38.4579C44.7812 41.1012 42.6383 43.2441 39.9944 43.2441C37.3504 43.2441 35.2068 41.1012 35.2068 38.4579C35.2068 35.8133 37.3504 33.6711 39.9944 33.6711C42.6383 33.6711 44.7812 35.8133 44.7812 38.4579Z" fill="#EC1E48"/>
<path d="M40.0163 66.9024C24.3311 66.9024 11.5703 54.1417 11.5703 38.4564C11.5703 30.8393 14.5422 23.683 19.9376 18.307C20.2449 17.9997 20.7439 18.0004 21.0499 18.309C21.3571 18.6163 21.3558 19.1146 21.0485 19.4212C15.951 24.5007 13.1441 31.2608 13.1441 38.4564C13.1441 53.2739 25.1988 65.3293 40.0163 65.3293C48.1271 65.3293 55.7216 61.7201 60.8524 55.4276C61.127 55.0902 61.622 55.0401 61.9593 55.3153C62.296 55.5899 62.3468 56.0855 62.0715 56.4222C56.6407 63.0828 48.6021 66.9024 40.0163 66.9024Z" fill="#16467E"/>
<path d="M72.4779 30.7735C72.2381 30.7735 72.0196 30.6112 71.9582 30.368C68.4425 16.441 55.963 6.236 41.6104 5.55197C41.0847 5.52726 40.5483 5.51389 40.0159 5.51389C39.7193 5.51389 39.4795 5.27408 39.4795 4.97816C39.4795 4.68157 39.7193 4.44177 40.0159 4.44177C40.565 4.44177 41.1188 4.45445 41.6618 4.48051C56.482 5.18658 69.3684 15.7236 72.9989 30.1055C73.0711 30.3928 72.8967 30.684 72.6095 30.7568C72.5661 30.7682 72.5213 30.7735 72.4779 30.7735Z" fill="#16467E"/>
<path d="M12.9829 19.6302C9.1179 25.1686 7.0765 31.6769 7.0765 38.4551C7.0765 41.8912 7.58886 45.2386 8.6149 48.4456C8.25552 48.5158 7.91617 48.6413 7.60823 48.8237C6.5401 45.4904 5.99902 42.0215 5.99902 38.4551C5.99902 31.4578 8.11123 24.7351 12.1018 19.015C12.2702 18.7725 12.6055 18.7118 12.8487 18.8841C13.0905 19.0524 13.1506 19.3877 12.9829 19.6302Z" fill="#16467E"/>
<path d="M40.0387 72.4723C35.5043 72.4723 31.1009 71.5945 26.9499 69.8638C26.6767 69.7495 26.5478 69.4349 26.6614 69.1617C26.7763 68.8878 27.0895 68.7616 27.3634 68.8731C31.3828 70.5498 35.6473 71.3995 40.0387 71.3995C46.6812 71.3995 53.0833 69.4322 58.5529 65.7095C58.798 65.5418 59.1314 65.6059 59.2984 65.8511C59.4654 66.0956 59.4019 66.4296 59.1567 66.5959C53.5088 70.4402 46.8977 72.4723 40.0387 72.4723Z" fill="#16467E"/>
<path d="M67.3331 35.0315C66.951 35.0315 66.6156 34.7523 66.5562 34.3628C65.5969 28.083 62.4086 22.3202 57.5797 18.1372C52.7013 13.9114 46.4555 11.5841 39.994 11.5841C38.4309 11.5841 36.8644 11.7191 35.3387 11.9856C34.9145 12.0624 34.503 11.7745 34.4289 11.3463C34.3541 10.9181 34.64 10.5107 35.0688 10.4358C36.6827 10.1539 38.34 10.011 39.994 10.011C46.8343 10.011 53.4454 12.4739 58.6097 16.9475C63.7212 21.375 67.0959 27.4758 68.1113 34.1257C68.1774 34.5545 67.8828 34.9567 67.4526 35.0221C67.4126 35.0282 67.3725 35.0315 67.3331 35.0315Z" fill="#16467E"/>
<path d="M39.9938 78.4491C38.3559 78.4491 36.7053 78.3489 35.0887 78.1518C34.6579 78.099 34.3506 77.7063 34.4034 77.2747C34.4561 76.8439 34.8469 76.5419 35.2798 76.5894C36.8329 76.7791 38.4194 76.8759 39.9938 76.8759C43.6117 76.8759 47.1922 76.3736 50.635 75.383C51.0539 75.2621 51.4887 75.5039 51.6089 75.9214C51.7292 76.3395 51.488 76.7751 51.0705 76.8953C47.4861 77.9267 43.7587 78.4491 39.9938 78.4491Z" fill="#16467E"/>
<path d="M77.409 27.4979C77.0737 27.4979 76.7637 27.2829 76.6582 26.9462C72.7938 14.6237 63.0818 5.12741 50.6784 1.5436C50.2609 1.4227 50.0211 0.986506 50.1414 0.569008C50.2616 0.152178 50.6978 -0.0909836 51.116 0.0319277C64.027 3.76269 74.1371 13.6477 78.1598 26.4752C78.2901 26.8901 78.0589 27.3316 77.6441 27.4612C77.566 27.4859 77.4871 27.4979 77.409 27.4979Z" fill="#16467E"/>
<path d="M4.20031 55.2624C3.89972 55.2624 3.61248 55.0887 3.48222 54.7968C1.17296 49.6445 0.00195312 44.1469 0.00195312 38.4562C0.00195312 32.7636 1.17362 27.2646 3.48356 22.1117C3.66124 21.7155 4.12549 21.5379 4.52362 21.7156C4.92041 21.8932 5.09743 22.3588 4.91974 22.7556C2.70066 27.7041 1.57576 32.9867 1.57576 38.4562C1.57576 43.9238 2.7 49.205 4.91775 54.1535C5.09543 54.5496 4.91841 55.0159 4.52162 55.1929C4.41675 55.2403 4.30786 55.2624 4.20031 55.2624Z" fill="#16467E"/>
<path d="M79.585 25.1469C79.585 23.6506 78.3719 22.4382 76.8762 22.4382C75.3799 22.4382 74.1669 23.6506 74.1669 25.1469C74.1669 26.6432 75.3799 27.8563 76.8762 27.8563C78.3719 27.8563 79.585 26.6432 79.585 25.1469Z" fill="#16467E"/>
<path d="M70.4561 33.6708C70.4561 31.8899 69.0118 30.4457 67.231 30.4457C65.4501 30.4457 64.0059 31.8899 64.0059 33.6708C64.0059 35.4517 65.4501 36.8959 67.231 36.8959C69.0118 36.8959 70.4561 35.4517 70.4561 33.6708Z" fill="#16467E"/>
<path d="M21.9521 43.2703C21.9521 41.4894 20.508 40.0452 18.7271 40.0452C16.9462 40.0452 15.502 41.4894 15.502 43.2703C15.502 45.0511 16.9462 46.4954 18.7271 46.4954C20.508 46.4954 21.9521 45.0511 21.9521 43.2703Z" fill="#16467E"/>
<path d="M40.0179 16.0817C27.678 16.0817 17.6406 26.1197 17.6406 38.4549C17.6406 38.7668 17.6453 39.0748 17.6593 39.3827C17.9993 39.2899 18.3581 39.2378 18.7268 39.2378C18.7174 38.9773 18.7128 38.7161 18.7128 38.4549C18.7128 26.7115 28.2698 17.1545 40.0179 17.1545C51.7612 17.1545 61.3183 26.7115 61.3183 38.4549C61.3183 50.2036 51.7612 59.7606 40.0179 59.7606C30.9865 59.7606 23.2498 54.1094 20.1563 46.1569C19.839 46.3145 19.4923 46.4214 19.1262 46.4668C22.3567 54.8589 30.4982 60.8328 40.0179 60.8328C52.3531 60.8328 62.3904 50.7955 62.3904 38.4549C62.3904 26.1197 52.3531 16.0817 40.0179 16.0817Z" fill="#16467E"/>
<path d="M11.9932 51.7606C11.9932 50.2643 10.7801 49.0519 9.28444 49.0519C7.78813 49.0519 6.57505 50.2643 6.57505 51.7606C6.57505 53.2569 7.78813 54.47 9.28444 54.47C10.7801 54.47 11.9932 53.2569 11.9932 51.7606Z" fill="#16467E"/>
<path d="M33.4424 38.456C33.4424 36.444 31.8111 34.8127 29.7991 34.8127C27.7871 34.8127 26.1559 36.444 26.1559 38.456C26.1559 40.468 27.7871 42.0992 29.7991 42.0992C31.8111 42.0992 33.4424 40.468 33.4424 38.456Z" fill="#16467E"/>
<path d="M40.0177 28C35.7051 28 31.9803 30.5504 30.2696 34.219C30.6423 34.2565 31.0017 34.3399 31.3417 34.4615C32.9269 31.2678 36.2181 29.0721 40.0177 29.0721C45.3556 29.0721 49.6956 33.4128 49.6956 38.7507C49.6956 44.0887 45.3556 48.4333 40.0177 48.4333C35.8941 48.4333 32.3718 45.8375 30.9797 42.1943C30.6417 42.3098 30.2823 42.3766 29.9082 42.388C31.4025 46.5329 35.3644 49.5055 40.0177 49.5055C45.9475 49.5055 50.7731 44.6805 50.7731 38.7507C50.7731 32.8203 45.9475 28 40.0177 28Z" fill="#16467E"/>
<path d="M59.6807 38.4561C59.6807 36.4441 58.0494 34.8129 56.0374 34.8129C54.0254 34.8129 52.3942 36.4441 52.3942 38.4561C52.3942 40.4681 54.0254 42.0994 56.0374 42.0994C58.0494 42.0994 59.6807 40.4681 59.6807 38.4561Z" fill="#16467E"/>
<path d="M54.6212 42.7815C52.7521 49.0807 46.9138 53.6899 40.0168 53.6899C31.6167 53.6899 24.7831 46.8563 24.7831 38.4569C24.7831 30.0568 31.6167 23.2226 40.0168 23.2226C47.2318 23.2226 53.2858 28.2666 54.8516 35.0127C55.2237 34.8844 55.6212 34.8116 56.0366 34.8116C56.1676 34.8116 56.2965 34.819 56.4241 34.8323C54.7614 27.302 48.0394 21.6494 40.0168 21.6494C30.749 21.6494 23.21 29.1891 23.21 38.4569C23.21 47.724 30.749 55.263 40.0168 55.263C47.7094 55.263 54.207 50.0667 56.1943 43.0006C56.1415 43.0026 56.0901 43.0086 56.0366 43.0086C55.5423 43.0086 55.0674 42.9271 54.6212 42.7815Z" fill="#16467E"/>
</svg>
